<?xml version="1.0" standalone="no"?>
<!DOCTYPE svg PUBLIC "-//W3C//DTD SVG 20010904//EN"
 "http://www.w3.org/TR/2001/REC-SVG-20010904/DTD/svg10.dtd">
<svg version="1.0" xmlns="http://www.w3.org/2000/svg"
 width="1000.000000pt" height="1000.000000pt" viewBox="0 0 1000.000000 1000.000000"
 preserveAspectRatio="xMidYMid meet">
<metadata>
Created by potrace 1.16, written by Peter Selinger 2001-2019
</metadata>
<g transform="translate(0.000000,1000.000000) scale(0.100000,-0.100000)"
fill="#000000" stroke="none">
<path d="M4560 9020 c0 -5 -8 -10 -17 -11 -11 0 -13 -3 -5 -6 20 -8 14 -26 -7
-20 -27 7 -34 -28 -26 -118 6 -63 9 -71 28 -72 20 -2 20 -1 5 8 -10 6 -18 17
-18 26 0 12 7 14 30 10 17 -4 30 -2 30 3 0 6 3 9 8 9 4 -1 9 0 12 1 3 1 16 4
30 5 14 1 49 5 78 9 37 5 52 3 47 -4 -3 -6 -11 -7 -17 -4 -7 4 -8 2 -4 -5 4
-6 12 -9 17 -6 5 4 9 1 9 -5 0 -6 5 -8 10 -5 6 4 8 10 5 15 -3 5 -1 11 4 14 5
3 11 -4 14 -15 5 -18 8 -19 29 -8 13 6 26 16 29 22 12 18 30 -3 19 -22 -12
-23 -3 -33 19 -22 15 9 22 11 39 11 4 1 -4 10 -17 20 -13 11 -19 20 -14 20 5
0 14 -5 21 -12 9 -9 12 -9 12 0 0 7 5 12 12 12 6 0 8 -3 5 -7 -4 -3 0 -15 10
-25 17 -19 39 -25 28 -8 -3 6 -2 10 4 10 6 0 8 6 5 13 -3 10 5 13 30 13 22 -1
31 -5 25 -10 -15 -16 -10 -24 11 -19 11 3 18 9 15 13 -3 4 8 7 25 6 16 -1 32
2 34 6 3 5 3 3 2 -4 -2 -7 -13 -12 -24 -10 -12 2 -22 0 -22 -5 0 -4 15 -9 34
-9 28 -1 33 2 29 17 -6 22 25 26 46 7 10 -9 12 -9 7 -1 -4 8 1 11 14 10 11 -1
20 -5 20 -9 0 -4 5 -8 11 -8 5 0 8 4 5 8 -3 5 8 9 25 10 22 0 32 -5 39 -21 5
-12 9 -16 9 -8 1 9 9 11 27 7 16 -4 23 -3 19 3 -10 16 28 1 43 -17 7 -10 12
-11 12 -4 0 21 26 13 37 -10 9 -21 10 -20 13 12 11 128 -1 193 -33 173 -5 -3
-4 -9 3 -13 8 -5 2 -10 -16 -14 -21 -6 -31 -3 -40 9 -9 12 -13 13 -17 3 -4
-10 -6 -10 -6 0 -1 6 -5 12 -11 12 -6 0 -9 -4 -7 -9 2 -10 -1 -11 -39 -11 -14
0 -23 4 -19 9 3 5 1 12 -4 15 -5 4 -8 -1 -7 -10 1 -8 8 -19 15 -23 7 -5 1 -8
-17 -9 -21 0 -33 6 -40 21 l-11 22 0 -23 c-1 -22 -2 -23 -18 -6 -10 10 -19 21
-19 26 -1 4 -2 11 -3 14 0 4 -8 1 -16 -6 -8 -6 -20 -9 -27 -5 -7 4 -4 0 6 -9
10 -8 22 -13 26 -11 4 3 13 -2 20 -10 11 -13 8 -15 -16 -12 -16 2 -40 9 -52
16 -13 7 -26 10 -30 7 -3 -3 1 -6 9 -6 12 0 12 -2 0 -9 -10 -7 -24 -3 -43 11
-19 13 -28 15 -26 6 2 -7 -6 -13 -17 -13 -11 0 -20 6 -20 13 0 6 -3 12 -7 12
-5 0 -11 0 -14 0 -4 0 -1 -7 6 -15 15 -19 -3 -20 -22 -2 -18 17 -35 15 -51 -7
-16 -21 -56 -29 -78 -15 -12 8 -12 10 1 19 12 8 8 10 -15 8 -20 -2 -29 1 -27
10 1 6 -2 12 -8 12 -14 0 -12 -11 6 -31 14 -16 14 -17 -1 -15 -9 1 -20 8 -24
15 -6 10 -10 9 -14 -3 -8 -19 -27 -21 -27 -3 0 8 -7 14 -15 14 -10 0 -12 -4
-5 -12 7 -8 5 -12 -5 -12 -8 0 -15 3 -15 7 0 4 -12 5 -26 2 -21 -4 -25 -2 -19
8 6 10 4 12 -10 6 -11 -4 -25 0 -38 11 -19 18 -20 17 -8 -5 11 -21 11 -23 -6
-20 -13 2 -17 11 -15 31 2 15 1 27 -2 27 -3 0 -6 -4 -6 -10z"/>
<path d="M1266 8099 c-26 -130 26 -406 108 -574 89 -185 228 -351 396 -477
150 -113 272 -171 450 -214 173 -43 263 -46 394 -15 49 12 90 20 91 19 2 -2
-33 -52 -77 -113 -165 -228 -290 -459 -371 -685 -52 -145 -128 -439 -154 -596
l-17 -109 -58 85 c-67 100 -115 148 -223 225 -134 95 -216 130 -430 180 -208
49 -373 49 -580 0 -214 -50 -297 -85 -430 -180 -105 -75 -146 -115 -210 -205
-74 -105 -91 -143 -120 -267 -33 -136 -33 -200 0 -336 29 -124 46 -162 120
-267 64 -90 105 -130 210 -205 133 -95 216 -130 430 -180 207 -49 372 -49 580
0 214 50 296 85 430 180 108 77 156 125 223 225 l58 85 17 -109 c26 -157 102
-451 154 -596 80 -223 208 -461 367 -679 42 -58 74 -106 72 -108 -2 -2 -42 6
-90 17 -131 30 -228 27 -399 -15 -289 -71 -525 -229 -709 -475 -111 -148 -171
-272 -213 -445 -44 -179 -47 -266 -10 -420 33 -144 46 -174 110 -266 63 -88
103 -127 200 -190 85 -56 101 -62 240 -95 149 -34 235 -33 399 6 208 49 294
90 473 224 237 176 398 417 468 701 42 170 46 268 15 399 -11 49 -19 90 -18
91 2 2 37 -22 78 -52 256 -188 477 -309 741 -403 129 -47 426 -122 575 -147
l109 -17 -85 -58 c-100 -67 -148 -115 -225 -223 -95 -134 -130 -216 -180 -430
-52 -221 -50 -375 10 -620 42 -173 86 -274 169 -390 76 -106 116 -146 206
-210 105 -74 143 -91 267 -120 136 -33 200 -33 336 0 124 29 162 46 267 120
90 64 130 105 205 210 95 134 130 216 180 430 49 208 49 373 0 580 -50 214
-85 297 -180 430 -77 108 -125 156 -225 223 l-85 58 109 17 c157 26 451 102
596 154 223 80 461 208 679 367 58 42 106 74 108 72 2 -2 -6 -41 -17 -87 -30
-115 -28 -224 5 -364 48 -206 84 -289 192 -443 89 -128 170 -212 293 -304 149
-112 272 -171 447 -213 180 -44 266 -46 425 -9 126 29 179 52 272 119 77 54
116 97 177 190 56 85 62 101 95 240 33 142 33 235 -1 380 -48 205 -84 288
-192 443 -89 128 -170 212 -293 304 -149 112 -272 171 -447 213 -171 42 -268
45 -399 15 -48 -11 -88 -19 -89 -18 -2 2 33 53 77 113 162 223 290 459 371
685 51 141 126 433 153 590 l18 106 57 -86 c68 -100 116 -148 224 -225 134
-95 216 -130 430 -180 208 -49 373 -49 580 0 214 50 297 85 430 180 105 75
146 115 210 205 73 105 89 139 119 265 34 138 34 202 0 340 -30 126 -46 160
-119 265 -64 90 -105 130 -210 205 -134 95 -216 130 -430 180 -208 49 -373 49
-580 0 -214 -50 -297 -85 -430 -180 -107 -76 -154 -123 -222 -222 l-57 -84
-18 108 c-27 162 -104 462 -155 603 -84 233 -199 446 -366 678 -53 72 -94 132
-92 132 2 0 44 -9 92 -21 130 -30 228 -26 398 16 214 53 392 151 564 310 68
63 187 216 244 313 100 171 173 493 143 630 l-8 32 -179 0 -179 0 0 -25 c0
-13 -8 -29 -17 -34 -17 -10 -17 -10 0 -11 17 0 22 -11 10 -23 -3 -4 -12 -2
-19 4 -8 7 -14 6 -20 -2 -5 -8 -3 -10 7 -4 11 6 12 5 2 -5 -7 -7 -20 -14 -30
-15 -10 -1 -28 -7 -40 -13 -20 -11 -23 -10 -23 8 0 26 -5 25 -37 -4 -14 -13
-32 -22 -39 -19 -9 3 -14 -2 -15 -13 0 -18 -1 -17 -9 1 l-9 20 0 -20 c-1 -17
-3 -17 -11 -5 -8 13 -10 12 -10 -4 0 -15 -3 -16 -15 -6 -8 7 -15 8 -15 2 0 -9
-19 -18 -58 -27 -6 -2 -10 1 -7 6 4 5 -1 6 -9 3 -9 -3 -13 -10 -10 -16 3 -5
-5 -8 -18 -7 -39 4 -59 -1 -53 -11 3 -5 1 -10 -4 -10 -6 0 -11 6 -11 13 -1 6
-9 2 -19 -10 -17 -20 -19 -20 -34 -6 -15 15 -16 15 -11 -4 4 -15 0 -22 -15
-26 -12 -3 -19 -1 -16 3 7 12 -13 23 -26 14 -8 -5 -8 -9 1 -14 8 -5 5 -9 -9
-13 -14 -3 -20 -1 -19 6 2 7 -2 12 -7 12 -5 0 -9 -5 -7 -11 1 -6 -5 -17 -13
-24 -8 -7 -15 -8 -15 -2 0 5 -11 12 -25 14 -14 3 -25 1 -25 -3 0 -5 -7 -9 -16
-9 -8 0 -13 -4 -10 -9 3 -5 16 -7 29 -4 12 3 19 2 15 -2 -11 -12 -68 -14 -61
-2 3 5 -3 5 -13 -1 -11 -6 -22 -9 -26 -9 -3 1 -10 -1 -14 -5 -4 -5 4 -8 17 -9
22 -1 21 -2 -6 -10 -18 -5 -31 -5 -33 1 -2 5 -10 6 -18 3 -7 -3 -11 -9 -8 -14
7 -12 -13 -11 -36 1 -16 8 -18 7 -14 -4 5 -13 0 -14 -26 -6 -25 7 -31 6 -27
-4 3 -7 -1 -13 -9 -13 -8 0 -14 10 -15 21 0 15 -2 17 -6 6 -8 -20 -24 -30 -47
-30 -20 0 -20 0 -1 14 18 13 18 14 -8 9 -15 -3 -25 -9 -22 -13 2 -4 -9 -7 -25
-8 -17 0 -30 3 -30 8 0 4 -7 11 -16 14 -14 5 -15 4 -5 -8 9 -11 7 -13 -15 -13
-14 0 -28 5 -30 12 -14 35 107 256 184 338 l26 27 -226 0 -226 0 -26 -45 c-42
-77 -75 -167 -106 -301 -38 -158 -41 -252 -11 -378 12 -49 19 -91 17 -93 -2
-3 -44 24 -93 60 -233 170 -446 285 -704 377 -129 47 -427 122 -575 146 l-109
18 80 54 c78 52 175 138 175 154 0 4 -263 8 -585 8 -322 0 -585 -4 -585 -8 0
-16 97 -102 175 -154 l80 -54 -109 -18 c-148 -24 -446 -99 -575 -146 -260 -93
-455 -198 -705 -378 -55 -39 -101 -70 -103 -68 -2 2 6 42 17 90 30 131 27 232
-15 401 -25 100 -48 167 -82 235 l-48 95 -229 3 -229 2 35 -38 c68 -76 130
-176 168 -272 17 -43 18 -51 5 -47 -8 4 -15 2 -15 -3 0 -6 5 -10 11 -10 5 0 8
-4 5 -8 -2 -4 -46 -9 -97 -9 -76 -2 -95 1 -107 15 -7 9 -11 12 -7 5 11 -22
-76 -4 -96 20 -16 19 -18 20 -19 5 0 -10 -5 -18 -11 -18 -5 0 -7 5 -4 10 3 6
-3 11 -14 11 -12 1 -25 3 -31 4 -5 1 -22 3 -36 4 -17 1 -23 5 -18 14 5 7 0 6
-11 -3 -15 -12 -17 -12 -10 -1 6 11 4 13 -8 8 -10 -3 -17 -2 -17 4 0 6 -4 7
-10 4 -5 -3 -10 1 -10 9 0 8 -5 18 -12 22 -6 4 -8 3 -4 -4 3 -6 2 -13 -3 -17
-5 -3 -14 2 -19 11 -6 11 -11 13 -16 5 -11 -16 -26 -13 -20 4 4 9 0 15 -10 15
-9 0 -16 -6 -16 -12 0 -10 -2 -10 -9 0 -4 7 -14 14 -22 15 -23 4 -40 18 -34
28 4 5 1 9 -4 9 -6 0 -11 -6 -11 -12 0 -10 -2 -10 -8 -1 -4 7 -18 11 -30 8
-12 -2 -24 1 -28 6 -3 5 -13 7 -23 4 -9 -3 -26 2 -37 11 -10 8 -14 13 -7 10 6
-4 14 -2 17 3 3 5 -3 11 -14 14 -13 3 -20 0 -20 -9 0 -8 -4 -14 -10 -14 -5 0
-10 4 -10 10 0 5 -7 7 -15 4 -11 -4 -15 0 -15 16 0 19 -1 20 -16 6 -21 -21
-27 -20 -19 4 4 11 2 20 -4 20 -6 0 -10 -3 -10 -7 5 -28 -2 -32 -35 -18 -18 8
-37 11 -41 7 -5 -4 -6 -2 -2 3 3 6 -3 17 -15 24 -11 7 -17 8 -13 2 9 -16 -21
-13 -38 4 -8 8 -18 11 -21 7 -4 -3 -4 1 -1 10 4 9 1 19 -5 23 -6 3 -9 1 -8 -5
3 -13 -30 -23 -44 -14 -5 3 -4 12 3 20 8 10 8 14 0 14 -6 0 -11 16 -11 35 l0
35 -179 0 -178 0 -7 -31z m6903 -302 c-11 -21 -11 -21 7 -5 18 16 23 16 49 3
l30 -15 -24 20 c-22 19 -22 20 -3 20 12 0 23 -4 26 -9 3 -4 16 -6 30 -4 24 5
50 -17 28 -25 -7 -2 -10 -8 -7 -13 3 -4 -6 -34 -21 -66 -88 -190 -266 -368
-455 -458 -225 -106 -445 -96 -574 26 -57 54 -91 114 -104 183 -7 39 -6 46 6
42 8 -3 12 -2 9 3 -12 18 85 77 110 67 8 -3 14 -1 14 3 0 5 12 14 28 19 15 5
36 13 46 18 15 6 17 4 11 -7 -6 -11 -5 -12 5 -2 11 10 17 10 29 0 12 -10 14
-9 8 5 -4 12 1 18 21 22 67 15 71 15 65 0 -3 -9 1 -14 12 -14 12 0 15 5 9 22
-6 21 -5 21 10 9 13 -11 16 -11 14 -2 -2 8 4 15 13 16 11 2 16 -3 14 -14 -1
-9 0 -10 2 -3 3 6 9 12 14 12 6 0 7 6 4 13 -4 6 0 4 8 -5 8 -10 17 -18 19 -18
3 0 5 8 4 18 0 9 6 17 14 17 8 1 24 6 35 12 16 9 24 8 37 -4 17 -15 18 -15 18
1 0 9 -4 14 -10 11 -5 -3 -10 -2 -10 4 0 13 19 18 46 13 16 -3 21 -9 17 -21
-4 -14 -3 -14 6 -1 6 8 11 22 11 30 0 22 97 55 116 39 11 -9 14 -8 14 5 0 14
4 15 21 5 13 -7 19 -7 15 -1 -7 12 5 21 33 27 11 2 22 -3 25 -11 4 -12 10 -12
26 -4 12 7 18 16 13 23 -4 7 2 5 12 -3 11 -9 16 -10 11 -2 -4 7 -1 12 9 12 9
0 13 -5 9 -11 -4 -7 -1 -10 7 -7 8 3 13 9 12 14 -1 5 14 10 33 11 32 1 33 0
23 -20z m-6463 4 c-3 -5 1 -14 8 -20 12 -10 14 -8 9 11 -4 18 -3 20 6 8 8 -11
11 -12 11 -2 0 11 15 12 73 7 39 -4 78 -7 84 -8 10 0 10 -4 1 -14 -9 -11 -6
-12 15 -4 22 9 25 8 20 -7 -6 -15 -4 -15 15 1 26 24 62 15 57 -14 -2 -11 0
-17 6 -14 5 4 9 13 9 21 0 8 4 13 9 9 6 -3 8 -14 6 -24 -2 -11 3 -22 12 -25
12 -5 14 -1 11 17 -3 15 0 24 9 24 14 0 28 -32 19 -45 -2 -4 6 -9 20 -10 13
-1 24 3 24 8 0 5 -8 7 -17 4 -17 -5 -17 -5 0 6 13 9 21 8 33 -4 19 -19 34 -21
35 -3 0 6 4 2 9 -11 8 -20 13 -21 32 -11 17 9 24 9 32 -2 6 -8 17 -14 24 -15
6 -1 21 -2 32 -2 11 -1 20 -7 20 -13 0 -21 26 -37 44 -27 10 5 20 7 23 4 4 -3
1 -6 -6 -6 -7 0 -9 -5 -6 -10 4 -6 12 -7 18 -3 20 12 47 10 47 -4 0 -7 5 -13
11 -13 6 0 8 7 5 16 -5 14 -4 15 8 5 8 -7 19 -10 23 -8 12 8 74 -23 68 -33 -6
-10 15 -7 34 4 7 5 16 5 20 0 3 -5 15 -10 26 -12 11 -2 32 -12 48 -23 15 -11
31 -17 36 -14 14 8 61 -16 54 -28 -4 -7 1 -8 12 -3 16 6 16 4 4 -11 -12 -15
-12 -16 5 -10 14 5 17 3 12 -8 -3 -8 0 -14 7 -12 36 7 -27 -140 -86 -201 -130
-134 -351 -148 -586 -37 -186 89 -364 267 -452 454 -19 41 -27 67 -20 69 15 5
14 23 0 20 -6 -2 -14 3 -17 11 -2 8 0 11 5 8 5 -3 15 -2 23 4 19 11 23 11 16
0z m3657 -255 c353 -57 681 -176 967 -350 505 -308 901 -805 1089 -1364 34
-103 37 -116 19 -107 -7 4 -6 1 2 -7 25 -21 44 -96 29 -114 -16 -20 -24 -18
-43 11 -16 24 -16 25 4 25 14 0 19 -4 14 -12 -4 -7 -3 -8 5 -4 8 6 9 12 2 20
-6 7 -7 17 -3 21 4 5 0 6 -9 2 -9 -3 -21 -1 -27 5 -6 6 -12 6 -17 -3 -5 -7 -4
-10 3 -5 6 3 13 2 17 -3 3 -5 -3 -14 -12 -20 -17 -9 -16 -11 6 -35 20 -21 21
-26 8 -26 -9 0 -17 5 -17 10 0 6 -6 10 -13 10 -7 0 -22 7 -33 16 -19 15 -18
15 4 11 12 -3 22 -1 22 4 0 8 -10 11 -30 11 -3 0 -16 -3 -29 -7 -17 -5 -22 -4
-19 6 3 8 10 15 16 15 7 1 16 2 21 3 5 0 11 11 14 23 5 18 8 19 21 8 11 -8 16
-9 16 -1 0 6 -3 11 -7 12 -5 0 -16 2 -25 4 -10 2 -17 0 -17 -3 3 -20 -2 -32
-10 -27 -5 3 -12 1 -16 -5 -3 -5 -10 -10 -14 -10 -14 0 -7 34 8 46 11 8 7 10
-18 6 -26 -4 -30 -7 -19 -19 7 -8 13 -21 14 -28 1 -7 5 -28 8 -46 6 -33 5 -33
-5 -6 -6 15 -15 25 -20 21 -5 -3 -9 0 -9 6 0 6 -4 8 -10 5 -5 -3 -10 -1 -10 5
0 7 7 10 15 6 8 -3 15 -1 15 4 0 6 0 13 0 18 0 4 -9 7 -19 7 -32 0 -45 19 -27
38 9 9 16 18 16 22 0 7 -43 -15 -51 -27 -3 -5 -12 -2 -19 7 -11 13 -10 14 6 8
17 -6 18 -5 5 11 -14 17 -16 17 -28 0 -7 -9 -10 -21 -6 -27 3 -6 1 -7 -5 -3
-6 4 -9 13 -5 21 3 9 -1 15 -11 15 -9 0 -16 4 -16 8 0 4 16 7 35 7 19 -1 32 2
29 7 -3 5 -11 8 -17 7 -30 -4 -39 2 -34 21 3 11 2 20 -1 20 -4 0 -18 10 -32
21 -20 16 -21 18 -4 10 26 -12 38 -3 22 16 -9 11 -8 13 2 11 7 -2 15 3 17 10
3 7 1 12 -4 11 -20 -3 -34 2 -28 11 3 6 2 10 -4 10 -15 0 -26 -23 -13 -28 17
-5 15 -19 -3 -19 -8 0 -15 4 -15 9 0 5 -4 7 -9 4 -5 -3 -14 0 -20 8 -9 11 -9
15 1 19 10 4 10 8 -2 17 -13 9 -12 10 5 8 11 -2 23 -7 26 -11 3 -4 16 -3 30 3
22 10 23 10 2 6 -13 -2 -23 0 -23 5 0 5 -16 7 -36 4 -25 -3 -34 -1 -31 8 2 6
19 11 38 11 25 -1 27 0 7 3 -24 4 -26 7 -18 29 16 42 11 51 -7 14 -10 -19 -24
-42 -32 -50 -12 -12 -13 -9 -9 22 2 20 0 34 -4 32 -7 -4 -12 14 -10 36 0 3
-10 5 -23 5 l-24 0 26 -27 c15 -15 23 -31 19 -35 -4 -4 -11 -1 -16 7 -7 11
-11 11 -23 1 -11 -8 -17 -9 -22 -1 -4 6 -1 9 6 8 20 -5 20 17 0 39 -18 19 -18
22 -3 39 16 17 16 17 -1 4 -16 -12 -20 -12 -27 0 -5 8 -6 18 -3 23 3 5 9 4 13
-3 5 -9 9 -9 14 -1 4 6 12 8 18 5 7 -4 8 -2 4 4 -4 6 -14 8 -23 5 -12 -5 -14
-3 -8 8 6 11 5 12 -5 2 -10 -10 -19 -7 -42 12 -26 22 -31 23 -44 10 -19 -18
-38 -20 -27 -2 14 22 11 36 -8 42 -21 7 -26 23 -6 22 30 -1 47 4 47 14 0 5 -4
8 -9 5 -12 -8 -33 19 -23 29 4 4 -3 2 -16 -4 -12 -7 -20 -17 -17 -24 4 -7 -1
-3 -9 7 -13 16 -13 22 -3 28 8 6 6 8 -8 6 -13 -3 -19 -10 -17 -23 2 -16 1 -17
-7 -5 -7 9 -7 18 -1 24 15 15 13 49 -2 40 -10 -6 -10 -4 0 8 9 11 10 18 2 23
-13 8 -24 -20 -16 -40 7 -20 -18 -30 -41 -16 -15 9 -13 10 12 6 17 -3 24 -2
17 1 -6 3 -10 9 -7 14 3 5 -6 7 -21 5 -18 -2 -24 2 -20 11 3 8 1 14 -5 14 -6
0 -8 4 -5 8 2 4 -4 19 -15 32 -14 18 -17 20 -12 6 4 -14 3 -17 -6 -12 -6 4 -9
16 -6 26 4 11 -3 23 -19 34 -28 18 -40 21 -31 7 3 -6 -4 -8 -16 -6 -29 6 -35
13 -21 27 9 9 12 8 12 -6 0 -9 4 -15 9 -12 10 6 12 56 2 57 -3 0 -14 2 -23 4
-10 2 -17 0 -17 -3 3 -19 -2 -32 -12 -32 -5 0 -7 5 -3 12 8 13 13 60 5 53 -2
-3 -10 3 -17 13 -13 16 -14 15 -20 -5 -3 -13 -10 -20 -15 -17 -5 3 -9 0 -9 -5
0 -20 20 -11 30 12 5 12 9 18 10 12 1 -5 3 -20 6 -32 3 -20 1 -21 -29 -12 -17
5 -34 9 -36 9 -2 0 4 9 14 20 17 19 17 20 0 20 -15 0 -16 2 -4 17 13 15 12 15
-11 3 -21 -11 -23 -11 -14 1 9 11 9 17 -1 26 -10 10 -16 9 -25 -2 -17 -20 -34
-7 -18 13 7 10 0 6 -15 -7 -22 -20 -27 -21 -27 -8 0 9 8 21 18 26 16 10 16 10
0 11 -10 0 -18 5 -18 11 0 6 -9 8 -22 3 -21 -6 -22 -5 -8 11 10 12 10 16 2 11
-7 -4 -20 -2 -28 5 -8 6 -17 9 -20 6 -8 -7 5 -29 14 -23 4 2 7 -7 7 -20 0 -13
-3 -24 -7 -24 -5 0 -8 5 -8 12 0 6 -10 3 -22 -8 l-23 -19 20 23 c15 18 16 25
6 31 -7 5 -12 11 -12 15 3 23 -1 28 -20 23 -12 -3 -18 -3 -15 0 3 3 -3 14 -15
24 -11 9 -16 19 -12 21 4 3 2 3 -6 1 -7 -2 -19 1 -25 5 -6 5 -19 12 -30 16
-13 4 -17 2 -13 -8 3 -8 0 -17 -7 -19 -9 -4 -12 5 -12 26 1 24 -4 32 -19 35
-11 3 -23 9 -27 16 -4 6 -6 1 -5 -12 0 -12 5 -22 9 -22 4 0 4 -8 1 -17 -6 -16
-5 -17 13 -3 18 14 18 14 5 -2 -18 -24 -20 -23 -33 13 -7 21 -15 28 -25 24
-11 -3 -13 -1 -10 10 7 17 -9 30 -18 14 -5 -7 -14 -3 -26 10 -11 12 -23 21
-27 22 -4 0 -17 2 -29 5 -13 2 -23 -1 -23 -8 0 -6 -10 -3 -22 8 -12 10 -18 14
-15 8 4 -7 0 -15 -9 -18 -8 -3 -12 -2 -9 4 3 6 1 10 -4 10 -6 0 -11 5 -11 11
0 5 4 8 9 4 5 -3 12 -1 15 4 4 5 -6 8 -20 6 -15 -1 -28 3 -31 12 -4 10 -9 11
-18 3 -9 -8 -14 -6 -19 7 -6 14 -9 15 -16 4 -4 -8 -6 -21 -3 -30 5 -13 3 -13
-8 1 -18 23 -60 14 -52 -10 4 -10 3 -14 -1 -11 -4 4 -9 16 -11 29 -8 39 -45
69 -45 36 0 -17 -18 -25 -43 -18 -17 4 -17 6 -1 23 10 11 12 19 6 19 -18 0
-25 2 -51 12 -19 7 -22 6 -13 -5 8 -10 6 -16 -9 -25 -15 -10 -19 -10 -19 0 0
10 -3 9 -9 -1 -10 -16 -31 -6 -31 15 0 8 -7 14 -16 14 -9 0 -12 5 -8 13 5 8 2
8 -9 -2 -13 -11 -17 -11 -17 -1 0 8 -3 11 -6 8 -3 -4 -18 -3 -33 2 -30 8 -62
-2 -42 -14 6 -4 11 -2 11 5 0 7 2 10 5 7 3 -3 3 -12 -1 -21 -5 -14 -7 -14 -24
0 -10 9 -16 23 -13 32 4 14 3 14 -6 1 -9 -12 -13 -12 -19 -2 -12 18 -42 4 -42
-19 0 -11 -7 -19 -17 -20 -10 0 -26 -2 -35 -4 -10 -2 -18 1 -18 7 0 6 -6 8
-13 5 -10 -4 -12 3 -9 25 3 21 1 29 -6 24 -6 -4 -9 -14 -6 -24 5 -14 2 -13
-12 3 -14 17 -16 17 -11 3 4 -10 2 -18 -4 -18 -6 0 -9 -7 -6 -14 4 -10 1 -13
-8 -10 -8 3 -17 14 -20 25 -4 10 -14 19 -23 19 -15 0 -15 -2 -2 -10 8 -5 11
-10 6 -10 -5 0 -1 -9 9 -20 10 -11 15 -20 12 -20 -4 0 -20 18 -36 40 -26 36
-30 38 -47 24 -11 -9 -13 -13 -6 -9 18 9 38 -5 21 -16 -11 -7 -10 -9 4 -9 9 0
17 -4 17 -10 0 -5 -4 -10 -10 -10 -11 0 -50 40 -50 52 0 4 -7 8 -15 8 -8 0
-15 -5 -15 -10 0 -7 -6 -7 -20 0 -14 8 -20 8 -20 0 0 -7 -12 -9 -31 -6 -23 3
-29 1 -25 -9 2 -7 -1 -18 -8 -24 -14 -12 -26 -2 -40 29 -3 8 -4 3 -2 -13 3
-27 3 -27 -20 -12 -18 12 -24 12 -24 3 0 -9 -3 -9 -8 -2 -9 14 -51 13 -46 -1
3 -6 14 -11 25 -12 29 -3 32 -8 20 -32 -8 -13 -17 -18 -28 -14 -11 4 -13 8 -5
11 7 2 12 8 12 13 0 12 -47 4 -66 -12 -12 -9 -13 -9 -9 3 7 17 -21 33 -30 18
-4 -6 -1 -10 6 -10 7 0 9 -3 6 -6 -4 -4 -13 -2 -20 5 -17 13 -95 22 -102 11
-3 -4 8 -10 23 -13 15 -3 30 -1 33 5 4 7 9 6 13 -1 9 -14 -18 -25 -44 -18 -13
3 -20 0 -20 -8 0 -8 -4 -17 -10 -20 -6 -4 -7 1 -3 11 4 12 3 15 -5 10 -11 -7
-17 6 -13 28 1 5 -5 4 -13 -3 -8 -7 -20 -10 -26 -6 -5 3 -10 -1 -10 -9 0 -8
-5 -18 -11 -22 -8 -4 -9 1 -5 17 7 23 6 23 -5 4 -7 -11 -19 -26 -26 -33 -11
-11 -13 -11 -13 2 0 18 -16 29 -31 21 -7 -5 -5 -14 5 -30 14 -21 13 -24 -6
-41 -12 -11 -18 -13 -14 -6 5 8 -1 16 -16 21 -23 10 -23 10 -1 10 12 1 24 -5
27 -11 3 -7 5 -5 3 6 -1 10 -12 23 -25 27 -17 6 -21 5 -16 -3 5 -8 2 -9 -11
-4 -19 7 -55 -18 -55 -38 0 -6 6 -4 13 4 14 18 37 24 37 11 0 -5 -9 -13 -20
-16 -11 -3 -20 -11 -20 -16 0 -6 -4 -8 -9 -4 -5 3 -13 1 -16 -5 -5 -8 -11 -8
-20 0 -7 6 -26 8 -42 5 -19 -5 -24 -4 -14 3 18 13 1 21 -24 11 -11 -4 -17 -8
-12 -8 4 -1 1 -14 -7 -30 -9 -16 -13 -31 -10 -34 3 -3 0 -8 -6 -12 -6 -4 -9
-1 -8 7 2 7 -3 12 -11 10 -8 -2 -11 3 -8 12 4 9 1 18 -5 22 -7 4 -8 3 -4 -4 6
-11 -12 -17 -36 -13 -4 0 -5 -6 -2 -14 7 -18 21 -20 26 -3 3 7 7 4 10 -7 4
-16 -1 -20 -23 -22 -22 -2 -27 1 -23 15 5 14 4 15 -4 2 -8 -10 -8 -18 0 -27 6
-7 6 -13 1 -13 -5 0 -16 9 -26 20 -21 25 -39 17 -33 -14 3 -16 -1 -22 -15 -23
-13 -1 -17 2 -12 10 15 24 12 37 -6 25 -18 -11 -26 -47 -10 -49 5 -1 14 -2 19
-3 14 -1 8 -20 -8 -22 -6 -1 -10 1 -7 6 3 4 -2 10 -10 14 -8 3 -15 13 -15 21
0 15 -1 15 -16 1 -8 -9 -19 -14 -24 -11 -5 3 -11 1 -15 -5 -3 -5 1 -10 9 -10
23 0 29 -20 12 -39 -9 -10 -13 -21 -9 -26 5 -4 -4 0 -18 9 -23 14 -28 15 -38
2 -7 -8 -10 -21 -6 -28 4 -7 -1 -4 -10 7 -12 14 -19 16 -22 8 -3 -7 -11 -13
-19 -13 -13 0 -18 -20 -17 -59 1 -8 -2 -10 -9 -3 -6 6 -6 22 0 46 6 21 7 34 1
31 -5 -4 -9 -16 -10 -28 0 -12 -3 -16 -6 -9 -2 6 -9 12 -14 12 -6 0 -7 -6 -2
-12 17 -28 12 -38 -15 -31 -20 5 -24 3 -19 -10 3 -8 -3 -23 -14 -33 -10 -9
-19 -13 -19 -9 0 4 -10 0 -22 -11 -13 -11 -18 -13 -13 -4 11 19 14 50 4 50 -3
0 -15 -12 -24 -27 -10 -16 -14 -25 -10 -21 9 8 39 -42 30 -50 -3 -3 -5 1 -6 9
0 9 -4 6 -10 -6 -9 -19 -9 -19 -6 1 5 26 -23 47 -44 32 -11 -8 -10 -9 4 -4 9
3 17 2 17 -2 0 -4 3 -18 7 -31 5 -20 3 -22 -15 -17 -11 4 -23 2 -27 -4 -3 -5
1 -10 9 -10 9 0 16 -4 16 -9 0 -4 -11 -6 -25 -3 -14 2 -23 8 -20 12 3 4 -2 13
-10 20 -20 16 -20 -1 -1 -39 10 -19 12 -31 4 -42 -8 -11 -9 -11 -4 4 3 9 1 17
-5 17 -6 0 -7 5 -4 10 3 6 -1 10 -10 10 -8 0 -18 -7 -21 -15 -4 -8 -11 -12
-17 -8 -6 4 -8 0 -4 -9 3 -9 0 -24 -8 -34 -7 -11 -13 -23 -13 -29 0 -5 -10
-13 -22 -17 -11 -4 -19 -4 -16 0 2 4 1 14 -5 22 -6 11 -9 12 -9 2 0 -7 -4 -10
-10 -7 -5 3 -10 2 -10 -4 0 -5 5 -13 10 -16 8 -5 7 -11 -1 -21 -9 -11 -8 -14
7 -15 18 0 18 -1 -1 -9 -11 -5 -15 -9 -10 -9 6 -1 4 -5 -2 -9 -7 -4 -14 -18
-16 -30 -2 -12 -7 -25 -12 -29 -4 -5 -5 -2 0 6 6 11 3 13 -12 9 -17 -4 -19 -2
-15 15 4 15 2 18 -8 12 -10 -6 -12 -4 -7 9 4 10 3 15 -4 11 -5 -4 -8 -19 -5
-35 3 -21 -1 -29 -14 -33 -14 -3 -17 0 -13 12 3 9 -10 0 -28 -19 -19 -19 -31
-36 -27 -38 4 -2 15 4 24 12 20 20 23 20 20 -1 -2 -10 -8 -19 -14 -19 -7 -1
-16 -2 -22 -3 -5 0 -10 -6 -10 -12 0 -5 4 -8 8 -5 4 2 7 -10 6 -27 -2 -40 -2
-39 -14 -32 -8 5 -7 11 1 21 10 12 4 14 -32 14 -44 -1 -44 -1 -23 -19 16 -13
19 -22 12 -34 -6 -11 -5 -17 2 -17 5 0 10 -8 10 -17 0 -14 -4 -12 -16 7 -17
27 -64 55 -64 38 0 -5 -6 -6 -12 -2 -7 4 -5 -2 6 -14 10 -12 23 -20 29 -19 6
1 12 -7 14 -18 3 -16 2 -17 -6 -5 -5 8 -13 12 -16 8 -3 -3 1 -12 9 -21 13 -13
12 -17 -10 -36 -13 -11 -24 -17 -24 -12 0 6 5 13 10 16 6 3 10 14 10 23 0 13
-2 13 -15 -4 -11 -14 -14 -15 -9 -3 3 10 0 20 -6 24 -8 5 -9 10 -2 14 7 4 8
12 2 21 -8 13 -10 12 -10 -3 0 -12 -5 -16 -12 -11 -10 5 -10 4 -1 -6 15 -17
-5 -50 -25 -42 -10 3 -13 1 -8 -6 8 -13 32 -16 39 -4 2 4 2 1 1 -5 -2 -7 1
-13 7 -13 6 0 8 -4 4 -9 -3 -6 3 -15 12 -20 15 -9 12 -10 -14 -6 -25 4 -33 1
-38 -15 -4 -11 -11 -18 -16 -15 -5 4 -9 1 -9 -5 0 -6 -4 -8 -10 -5 -5 3 -10 2
-10 -4 0 -5 5 -13 10 -16 6 -3 10 -1 10 4 0 6 4 11 8 11 12 0 11 -32 -1 -47
-13 -18 -30 -16 -23 2 3 9 -3 19 -16 26 -17 9 -18 13 -7 20 11 7 11 9 -2 9 -9
0 -24 -10 -35 -22 -16 -20 -17 -21 -1 -9 14 11 21 11 29 3 7 -7 9 -12 5 -12
-4 0 -3 -9 3 -20 9 -16 8 -18 -5 -14 -8 3 -13 10 -10 14 3 5 1 11 -4 14 -17
11 -22 -12 -5 -28 8 -9 11 -16 5 -16 -5 0 -16 8 -23 18 -13 18 -44 30 -34 13
4 -5 2 -12 -3 -15 -5 -4 -13 -2 -16 4 -5 8 -11 7 -21 -1 -19 -16 -18 -26 6
-32 11 -3 18 -2 15 2 -2 5 6 13 19 19 19 8 25 8 30 -3 6 -16 -9 -29 -24 -20
-7 4 -7 -3 0 -19 6 -17 6 -26 0 -27 -6 -1 -16 -2 -22 -3 -7 0 -14 -7 -14 -13
-2 -23 -4 -24 -14 -18 -8 5 -8 11 -1 19 6 7 7 16 3 21 -4 4 3 5 16 2 13 -3 22
-1 22 6 0 7 -13 12 -28 12 -23 0 -28 -4 -24 -17 7 -28 -11 -21 -34 13 -13 18
-24 26 -28 20 -4 -6 -2 -11 4 -11 7 0 8 -6 0 -19 -14 -27 -13 -44 3 -35 8 5 8
3 -2 -9 -7 -9 -17 -14 -22 -11 -5 3 -9 0 -9 -5 0 -20 -17 -11 -28 14 -14 30
-15 35 -4 34 20 -3 33 2 27 11 -4 6 -11 7 -17 4 -7 -4 -8 -2 -4 4 4 7 1 12 -8
12 -9 0 -15 -3 -15 -7 3 -19 -2 -33 -12 -33 -6 0 -7 5 -2 13 4 6 8 15 9 20 1
4 2 8 3 10 1 1 4 18 6 37 5 49 58 204 117 340 198 462 570 889 1008 1156 297
181 671 313 1005 353 50 6 104 13 120 15 71 10 485 -3 578 -18z m-4044 -2076
c46 -11 120 -38 165 -59 96 -45 205 -129 184 -142 -9 -6 -7 -9 9 -9 16 0 20
-5 16 -20 -3 -11 -14 -20 -24 -20 -11 0 -19 -7 -19 -17 0 -14 -2 -15 -9 -5 -4
8 -12 14 -16 14 -4 0 -12 -6 -16 -14 -7 -10 -9 -10 -9 0 0 6 -4 12 -9 12 -6 0
-8 -9 -6 -21 4 -20 3 -20 -19 -5 -21 13 -25 13 -30 1 -3 -9 0 -12 10 -8 7 3
14 1 14 -5 0 -11 -85 -26 -100 -17 -5 3 -10 0 -10 -7 0 -9 -3 -9 -10 2 -7 11
-10 11 -10 2 0 -7 -4 -11 -9 -8 -5 3 -7 16 -5 29 4 20 4 20 -5 2 -4 -11 -7
-23 -5 -27 2 -3 -16 -6 -40 -5 -45 2 -52 12 -26 36 10 8 6 8 -10 -2 -14 -9
-24 -20 -23 -25 1 -5 -16 -9 -38 -10 -38 -2 -39 -1 -33 26 l5 27 -20 -23 c-11
-12 -22 -18 -25 -13 -3 5 -17 11 -32 14 -29 5 -20 -8 11 -17 11 -3 3 -3 -17 0
-32 4 -37 2 -31 -12 4 -12 2 -15 -8 -12 -8 3 -13 15 -13 26 1 12 -3 22 -7 22
-5 0 -9 -5 -9 -11 0 -5 -4 -7 -10 -4 -5 3 -10 1 -10 -5 0 -6 -12 -9 -27 -8
-16 2 -27 -2 -26 -8 1 -7 -8 -9 -22 -6 -14 2 -25 9 -25 15 0 6 -7 2 -15 -9 -8
-10 -15 -14 -15 -7 0 7 -7 10 -17 7 -13 -4 -14 -3 -5 3 10 7 8 13 -6 26 -18
16 -19 16 -18 -5 1 -17 -5 -24 -21 -26 -18 -3 -23 2 -24 20 -1 18 -2 19 -6 5
-5 -18 -5 -18 -19 0 -11 14 -13 14 -9 2 5 -12 -1 -16 -27 -17 -31 -1 -32 0
-14 14 11 8 15 14 9 14 -7 0 -18 -7 -27 -15 -9 -10 -17 -12 -21 -5 -4 6 -15 8
-26 5 -13 -4 -19 -2 -19 9 0 8 -9 18 -21 21 -25 8 -39 -3 -19 -15 9 -6 10 -10
3 -10 -6 0 -15 5 -18 10 -4 6 -11 7 -17 4 -6 -4 -9 -3 -5 2 3 5 -2 18 -10 29
-15 19 -15 19 -9 -5 6 -23 6 -23 -7 -8 -8 10 -18 14 -22 10 -4 -4 -6 5 -3 20
3 15 1 25 -3 22 -5 -3 -9 -12 -9 -20 0 -8 -7 -14 -15 -14 -8 0 -15 5 -15 11 0
5 -4 8 -9 5 -5 -4 -7 3 -4 14 4 16 2 19 -13 14 -11 -4 6 17 36 45 91 86 250
154 418 181 86 14 275 3 371 -20z m7818 -10 c134 -32 291 -115 357 -189 17
-19 17 -21 2 -27 -9 -3 -13 -10 -10 -15 3 -5 0 -10 -5 -10 -28 -3 -63 -19 -84
-38 -14 -11 -18 -12 -15 -2 2 7 -5 15 -14 16 -11 2 -15 -3 -13 -16 3 -13 -2
-19 -13 -19 -9 0 -27 -3 -40 -6 -13 -4 -22 -3 -21 2 1 5 1 18 0 29 -1 16 -3
17 -10 5 -6 -8 -8 -17 -5 -21 2 -4 -3 -12 -11 -19 -12 -10 -18 -10 -32 1 -11
10 -14 10 -9 2 5 -9 -1 -13 -19 -13 -18 0 -24 4 -19 13 6 10 4 10 -7 0 -18
-18 -45 -16 -74 3 -24 16 -25 15 -25 -6 0 -19 -2 -20 -15 -10 -12 10 -15 10
-15 -1 0 -11 -2 -11 -10 1 -6 9 -10 11 -10 3 0 -7 -7 -10 -16 -6 -8 3 -13 11
-11 18 3 6 -1 12 -9 12 -7 0 -16 -7 -18 -14 -4 -9 -1 -11 6 -7 6 4 8 3 5 -3
-10 -16 -67 -14 -67 3 0 8 -8 14 -17 14 -15 0 -16 -2 -3 -10 13 -8 13 -10 -2
-10 -9 0 -18 6 -21 13 -3 9 -7 9 -20 -1 -20 -17 -67 -25 -67 -12 0 6 5 8 10 5
6 -3 10 -2 10 4 0 20 -19 21 -25 1 -7 -21 -25 -28 -25 -9 0 8 -4 8 -12 2 -7
-5 -57 -10 -111 -11 -83 -1 -97 1 -87 13 6 8 21 16 33 18 19 4 18 4 -4 6 -15
0 -32 -6 -39 -14 -11 -14 -14 -13 -26 4 -15 20 -51 34 -56 21 -2 -5 -15 -11
-29 -14 -22 -3 -26 -1 -22 14 3 11 10 21 17 23 6 2 3 3 -6 2 -9 -2 -19 4 -22
12 -3 8 -11 11 -17 7 -9 -5 -7 -11 5 -19 15 -11 15 -13 -1 -26 -10 -7 -15 -10
-11 -5 4 5 1 15 -7 22 -16 17 -29 19 -19 3 3 -6 -5 -4 -18 5 -14 9 -28 13 -32
9 -4 -4 -4 0 0 10 5 14 9 15 20 6 11 -9 15 -7 20 6 4 9 1 20 -5 25 -37 22 199
162 327 195 157 40 341 42 489 5z m-8217 -611 c0 -5 5 -7 10 -4 6 3 10 2 10
-3 0 -5 7 -9 15 -9 10 0 12 4 5 12 -7 8 -5 12 5 12 8 0 15 -4 15 -9 0 -5 6 -6
12 -2 17 11 48 12 42 2 -3 -4 -1 -8 5 -8 5 0 13 5 16 10 3 6 14 10 23 9 14 0
13 -2 -3 -9 -16 -7 -17 -9 -3 -9 9 -1 20 3 23 9 3 5 17 9 30 8 13 -1 22 -5 20
-8 -1 -3 4 -11 12 -19 13 -12 14 -11 8 8 -6 21 -5 21 14 9 12 -7 19 -19 16
-28 -3 -9 1 -7 10 4 8 11 15 23 15 28 0 4 7 8 16 8 9 0 14 -6 11 -13 -3 -8 1
-14 9 -14 8 0 13 5 11 11 -3 6 6 12 19 12 12 1 25 -4 28 -12 4 -9 22 -14 56
-14 28 0 50 -5 50 -11 0 -5 5 -7 10 -4 6 3 10 11 10 16 0 6 -4 8 -9 4 -5 -3
-12 -1 -15 4 -4 5 2 8 11 6 10 -2 29 -4 43 -4 18 -1 21 -4 12 -10 -11 -7 -10
-9 3 -14 9 -4 13 -3 10 2 -3 5 -1 13 5 16 16 10 40 -14 33 -33 -4 -14 -3 -15
5 -2 6 8 8 18 6 22 -3 4 -1 8 5 8 5 0 14 -6 18 -12 11 -18 52 -40 62 -34 13 8
43 -31 39 -51 -5 -28 -141 -119 -231 -153 -126 -49 -206 -63 -352 -63 -203 0
-370 48 -507 146 -73 53 -93 77 -63 77 10 0 13 5 9 13 -5 8 -2 8 9 -2 9 -7 17
-10 17 -6 0 4 8 1 18 -6 13 -10 14 -10 6 0 -14 15 -7 48 11 55 9 3 12 0 9 -9
-4 -9 1 -13 15 -12 14 1 17 4 10 13 -7 9 -4 16 11 24 22 12 44 5 35 -11 -3 -5
1 -6 9 -3 8 3 12 12 9 20 -3 9 2 15 13 15 44 4 69 6 74 8 15 7 48 6 44 -1 -3
-4 4 -8 16 -8 13 0 19 -4 14 -12 -5 -7 -3 -8 5 -4 7 5 10 15 7 22 -5 13 -2 12
16 -1 30 -20 37 -19 31 5 -3 11 0 20 6 20 6 0 11 -5 11 -11z m7694 -11 c-6
-10 -4 -10 7 -2 17 14 131 15 123 2 -4 -6 8 -7 27 -3 59 11 109 13 103 4 -3
-5 -10 -7 -15 -4 -5 4 -9 1 -9 -4 0 -15 16 -14 32 2 17 18 38 10 31 -11 -5
-13 -2 -12 13 3 19 20 77 27 102 11 6 -3 23 -2 39 4 25 9 26 9 10 -4 -13 -10
-15 -15 -5 -18 7 -3 19 2 26 11 11 15 12 15 6 0 -3 -10 1 -19 10 -22 10 -4 13
-1 10 7 -3 8 -1 17 5 21 15 8 53 -4 46 -15 -3 -5 -1 -11 4 -14 5 -3 11 4 14
15 7 24 33 20 31 -5 -2 -18 21 -22 32 -4 4 7 3 8 -4 4 -7 -4 -12 -2 -12 3 0
16 20 13 26 -4 4 -8 10 -12 15 -9 5 3 9 0 9 -7 0 -8 4 -8 13 -2 6 6 19 10 29
10 13 0 14 -5 7 -24 -4 -12 -5 -22 -1 -22 27 4 44 -3 38 -16 -3 -9 0 -15 9
-15 8 0 12 6 9 13 -3 8 2 20 11 27 11 9 15 9 15 1 0 -7 4 -10 9 -7 17 11 18
-19 2 -31 -13 -10 -14 -11 -1 -10 8 2 20 6 26 10 7 4 17 1 23 -7 8 -10 6 -17
-12 -32 -12 -10 -16 -12 -9 -4 6 8 12 19 12 24 0 6 -11 -5 -24 -24 -53 -78
-253 -160 -439 -181 -138 -15 -272 -1 -404 43 -126 41 -274 132 -258 158 3 6
-4 10 -17 10 -18 0 -20 2 -8 9 8 6 18 7 22 5 4 -3 5 2 1 11 -7 20 15 37 40 29
9 -3 17 -1 17 5 0 6 -6 11 -12 11 -7 0 -5 5 5 11 13 8 22 7 33 -1 8 -8 14 -8
14 -2 0 5 7 13 16 16 8 3 12 2 9 -4 -3 -6 -4 -10 -1 -10 2 0 11 -3 20 -6 9 -3
16 -1 16 6 0 6 -4 8 -10 5 -5 -3 -10 -2 -10 3 0 11 38 23 82 27 15 1 25 -1 22
-6 -3 -5 -1 -9 4 -9 6 0 12 7 16 15 3 8 8 15 11 15 4 0 3 -6 -1 -12z m-5848
-808 c-2 -14 -5 -25 -6 -25 -1 0 -3 -8 -5 -18 -2 -9 1 -15 6 -11 5 3 6 10 3
16 -4 7 -2 8 5 4 6 -4 9 -19 7 -32 -4 -21 -3 -24 10 -14 10 9 14 9 14 1 0 -6
5 -11 11 -11 5 0 7 6 3 13 -4 6 2 3 14 -7 19 -17 22 -17 22 -3 0 10 -4 17 -9
17 -5 0 -11 6 -14 14 -5 11 -1 11 24 -1 25 -13 34 -29 30 -55 0 -5 8 -8 19 -8
11 0 20 -5 20 -11 0 -5 -4 -7 -10 -4 -5 3 -10 2 -10 -3 0 -15 13 -22 24 -13 7
6 17 3 26 -7 13 -14 12 -15 -2 -10 -8 4 -21 1 -27 -5 -8 -8 -11 -8 -11 2 0 7
-6 11 -15 7 -17 -6 -45 19 -45 42 -1 14 -3 14 -12 -3 -6 -11 -16 -23 -22 -27
-6 -4 1 -8 16 -8 15 0 30 -4 33 -10 3 -5 15 -10 26 -10 17 0 23 -9 17 -27 -2
-5 -7 -7 -11 -5 -5 1 -6 -2 -3 -7 11 -18 -10 -20 -26 -3 -30 33 -57 51 -63 42
-9 -14 4 -30 19 -24 7 3 19 -2 26 -11 12 -14 11 -18 -1 -27 -11 -8 -10 -9 5
-4 10 4 25 1 33 -6 11 -9 13 -9 11 2 -2 7 7 18 18 25 12 6 30 17 40 25 16 14
16 13 6 -6 -11 -21 -7 -34 9 -34 5 0 6 7 3 15 -4 9 0 15 9 15 10 0 13 -8 9
-26 -3 -16 -9 -23 -18 -20 -7 3 -16 0 -20 -6 -4 -6 -3 -8 3 -5 6 4 9 -10 8
-38 -1 -25 2 -45 7 -45 4 0 6 11 4 25 -5 25 7 34 19 15 4 -6 11 -8 16 -4 6 4
6 11 -2 20 -15 19 17 32 34 14 9 -10 9 -11 -2 -5 -10 6 -12 4 -7 -4 5 -7 13
-10 20 -8 7 3 11 -10 12 -39 0 -23 -4 -40 -8 -38 -5 3 -5 10 -2 16 5 8 1 9
-11 4 -18 -6 -18 -6 1 16 14 17 14 19 2 9 -9 -7 -22 -10 -27 -7 -5 4 -13 1
-17 -5 -4 -8 -3 -9 4 -5 7 4 12 1 12 -7 0 -14 23 -30 45 -32 6 0 17 -4 25 -9
12 -7 13 -6 3 5 -7 7 -13 20 -13 28 0 11 3 11 13 -4 15 -20 34 -5 21 17 -5 7
-3 8 5 4 7 -5 10 -14 7 -21 -7 -18 5 -27 20 -14 9 7 12 6 10 -5 -1 -9 -5 -19
-9 -22 -11 -11 -8 -44 3 -44 6 0 10 5 10 10 0 6 7 10 16 10 9 0 14 -7 12 -17
-2 -10 -11 -18 -19 -17 -9 1 -15 -8 -16 -25 -1 -14 1 -20 4 -13 2 6 10 9 15 6
7 -5 8 -2 3 6 -6 10 -4 12 8 7 10 -3 17 -3 17 1 0 4 11 7 25 7 14 0 25 -5 25
-12 0 -7 -6 -10 -13 -7 -7 2 -24 -5 -38 -17 -18 -17 -20 -21 -5 -15 14 5 17 2
12 -9 -3 -10 -2 -13 5 -10 6 4 8 12 6 19 -3 7 4 13 14 13 10 1 19 -2 19 -8 0
-5 3 -8 8 -7 21 4 58 -15 59 -33 1 -10 -3 -19 -8 -19 -6 0 -7 5 -4 10 6 9 -8
14 -28 11 -5 -1 -6 3 -3 8 4 5 2 12 -4 16 -5 3 -10 -1 -10 -9 0 -8 -6 -14 -12
-13 -7 2 2 -3 20 -11 23 -11 32 -21 32 -38 0 -16 6 -24 17 -24 13 0 14 3 5 12
-15 15 -16 32 -2 23 6 -3 10 -1 10 6 0 8 4 8 15 -1 17 -14 21 -35 5 -25 -5 3
-10 -1 -10 -9 0 -9 8 -14 20 -13 11 1 20 2 20 3 0 2 -4 14 -10 28 -11 30 -8
32 13 11 18 -17 11 -59 -8 -51 -8 3 -16 -2 -19 -10 -3 -8 -1 -14 4 -14 5 0 7
-9 5 -21 -4 -17 -2 -19 10 -9 12 10 15 10 15 -1 0 -11 2 -11 9 0 8 12 12 12
25 2 8 -7 12 -19 9 -27 -6 -17 13 -19 23 -2 5 7 2 9 -7 4 -8 -4 -6 -1 3 7 16
13 16 15 -10 27 -15 7 -35 12 -44 11 -10 -1 -18 2 -18 7 0 5 16 9 35 9 21 -1
35 -6 35 -14 0 -17 17 -17 24 0 3 6 5 -3 3 -20 -2 -22 0 -30 7 -24 7 6 21 1
36 -13 l26 -22 -21 -22 c-20 -21 -21 -21 -21 -2 0 11 7 20 16 20 13 0 13 1 0
10 -10 6 -16 6 -18 0 -2 -6 -11 -10 -20 -11 -11 0 -12 -2 -4 -6 6 -2 10 -8 7
-13 -3 -4 2 -13 9 -20 12 -9 19 -7 36 10 11 11 25 18 31 15 5 -4 17 -1 25 6
12 10 13 9 8 -5 -3 -9 -10 -16 -15 -16 -5 0 -8 -3 -8 -7 1 -5 1 -15 0 -23 -1
-13 -3 -13 -10 -1 -5 8 -7 21 -3 29 8 23 -16 5 -30 -21 -11 -21 -10 -21 7 -7
17 14 18 13 11 -5 -4 -11 -4 -16 0 -12 4 4 16 0 26 -10 10 -9 18 -11 18 -5 0
6 -5 12 -12 14 -9 3 -9 6 -1 11 7 5 17 -2 24 -15 9 -17 9 -23 -1 -26 -10 -4
-9 -6 1 -13 7 -4 21 -3 31 2 14 7 20 6 24 -6 3 -8 13 -15 21 -15 8 0 11 5 8
13 -4 6 0 4 8 -6 11 -13 20 -15 38 -8 17 6 28 5 37 -5 8 -9 9 -14 2 -14 -7 0
-9 -9 -5 -22 5 -18 4 -20 -4 -8 -9 13 -11 12 -11 -3 0 -11 -5 -15 -11 -11 -7
4 -7 10 -1 16 12 12 5 38 -10 38 -5 0 -6 -5 -2 -12 4 -6 3 -8 -3 -5 -6 4 -16
0 -23 -8 -11 -13 -10 -14 3 -10 10 4 18 -1 22 -15 5 -15 12 -19 27 -14 17 5
19 3 13 -18 -5 -18 -4 -20 4 -8 6 8 11 25 11 38 0 23 14 30 25 12 4 -6 11 -8
16 -4 5 3 7 9 5 13 -3 4 -1 13 3 20 6 9 11 10 15 2 4 -6 3 -11 -2 -11 -16 0
11 -49 31 -56 9 -3 17 -10 17 -15 0 -6 -6 -7 -12 -3 -7 4 -10 3 -5 -1 4 -5 18
-10 30 -12 17 -2 19 -1 7 7 -13 8 -13 10 2 10 9 0 20 -5 23 -10 4 -6 11 -8 16
-5 5 4 9 1 9 -6 0 -6 7 -17 15 -23 14 -10 13 -14 -5 -34 -11 -12 -17 -23 -13
-23 30 -5 53 -6 48 -1 -2 3 3 12 13 20 11 9 8 9 -10 -2 -16 -9 -28 -12 -28 -7
0 13 26 32 33 24 4 -3 7 0 7 8 1 10 3 9 11 -3 6 -12 19 -16 39 -14 20 2 27 -1
23 -10 -3 -8 -10 -11 -17 -7 -6 3 -7 2 -3 -2 10 -12 39 -16 32 -5 -3 5 0 12 6
16 8 4 9 3 5 -4 -4 -7 -1 -12 8 -12 8 0 18 4 21 10 3 5 17 9 30 8 22 -2 23 -4
10 -18 -14 -13 -17 -13 -25 0 -7 10 -10 11 -10 3 0 -7 -6 -13 -14 -13 -8 0
-17 -7 -20 -16 -5 -13 -3 -14 6 -7 11 9 37 11 70 4 3 0 5 -9 3 -18 -1 -10 -9
-17 -18 -15 -8 1 -18 -2 -22 -8 -4 -6 -3 -10 2 -9 22 4 35 -2 30 -15 -3 -8 0
-17 8 -19 13 -6 15 9 2 29 -4 7 1 14 13 17 13 3 20 0 20 -10 0 -11 7 -14 24
-9 20 5 25 2 29 -16 3 -23 4 -22 14 3 10 22 17 26 47 24 32 -3 34 -2 21 12
-21 20 -19 28 2 12 34 -26 45 -39 34 -39 -6 0 -11 -5 -11 -11 0 -6 7 -8 15 -5
8 3 22 9 31 12 12 5 15 2 12 -12 -2 -13 -10 -18 -23 -16 -11 2 -17 1 -13 -3 5
-6 14 -8 48 -14 3 -1 -2 -6 -10 -11 -12 -8 -11 -10 6 -10 12 0 27 7 34 15 17
20 37 19 49 -2 10 -17 10 -17 11 1 0 12 5 16 16 12 9 -3 12 -2 9 5 -4 6 -14 8
-22 5 -8 -3 -12 -2 -9 3 3 4 -5 6 -18 4 -13 -3 -27 0 -30 6 -4 5 -13 8 -21 4
-8 -3 -15 0 -15 5 0 6 12 9 26 6 15 -3 23 -1 20 5 -4 5 -2 13 4 16 6 4 10 3 9
-2 -5 -27 1 -33 22 -22 16 8 20 8 14 -1 -4 -7 -1 -10 11 -8 13 2 18 -3 18 -17
0 -11 -6 -19 -13 -17 -7 1 -10 -2 -7 -7 4 -5 2 -12 -4 -16 -5 -3 -10 -11 -10
-16 0 -5 12 1 27 15 26 24 28 25 47 8 20 -16 20 -16 7 1 -12 15 -11 17 10 18
17 1 19 3 7 6 -10 2 -18 8 -18 13 0 4 8 14 18 21 16 13 16 13 2 -5 -14 -18
-13 -19 3 -13 11 4 17 2 17 -8 0 -9 8 -12 28 -9 26 4 26 3 8 -11 -11 -8 -17
-18 -13 -21 4 -4 13 -2 20 4 8 7 18 8 22 4 5 -4 5 1 2 11 -4 9 -2 17 3 17 6 0
10 -6 10 -14 0 -10 8 -13 26 -10 25 4 25 4 9 -12 -12 -13 -21 -14 -38 -7 -17
8 -26 7 -37 -5 -9 -11 -15 -12 -18 -4 -5 17 -22 15 -22 -3 0 -17 14 -19 40 -5
12 7 28 7 44 0 18 -6 26 -6 26 1 0 6 4 8 9 5 5 -3 16 10 25 29 10 21 24 35 34
34 14 0 13 -2 -3 -9 -11 -5 -14 -9 -6 -9 7 -1 11 -7 8 -15 -3 -7 0 -19 6 -26
10 -10 7 -12 -10 -7 -13 3 -23 2 -23 -3 0 -4 11 -10 25 -13 18 -3 30 2 39 14
7 10 16 16 20 12 4 -4 4 0 0 10 -3 10 -1 17 6 17 6 0 8 5 5 10 -3 6 -1 10 5
10 6 0 8 5 5 10 -11 18 1 11 21 -12 10 -12 14 -18 8 -15 -7 4 -14 -2 -17 -13
-8 -30 22 -25 33 5 11 30 20 33 13 5 -3 -11 0 -20 6 -20 6 0 10 3 10 8 -4 22
3 33 19 30 9 -1 23 1 29 5 9 6 11 3 7 -8 -4 -10 -13 -13 -24 -10 -10 3 -21 1
-25 -4 -3 -6 0 -8 8 -5 8 3 18 1 22 -5 3 -7 -2 -11 -14 -11 -20 0 -37 -17 -27
-27 3 -3 12 0 21 7 12 10 18 10 30 0 8 -7 13 -16 10 -19 -2 -4 2 -8 10 -8 9 0
11 4 6 11 -5 7 1 21 17 36 21 21 24 22 17 5 -3 -11 -8 -29 -11 -39 -3 -15 -1
-17 8 -8 7 7 21 12 32 12 17 0 18 2 6 10 -15 10 -13 11 26 15 12 1 26 5 32 9
6 3 13 0 15 -6 3 -8 6 -6 6 5 1 14 -5 17 -26 14 -16 -3 -37 -9 -47 -13 -13 -5
-17 -4 -12 4 3 6 2 13 -4 17 -5 3 -10 14 -9 23 0 12 3 10 10 -7 7 -18 12 -21
23 -12 7 6 16 8 19 5 9 -10 59 5 52 15 -3 5 3 7 14 4 25 -6 43 -47 28 -62 -6
-6 -18 -11 -26 -11 -14 0 -14 -2 -1 -9 26 -17 57 47 37 75 -4 7 -2 14 6 17 13
5 17 -5 18 -46 0 -15 3 -16 15 -7 16 14 19 44 3 34 -7 -4 -7 1 1 16 8 15 15
19 22 12 6 -6 16 -8 23 -6 7 3 16 0 20 -6 4 -7 12 -4 23 7 9 10 14 14 10 9
-17 -21 -7 -28 14 -10 12 10 18 14 15 7 -4 -6 -4 -13 0 -16 5 -2 3 -2 -4 -1
-6 2 -17 -4 -24 -12 -9 -11 -15 -12 -25 -3 -8 6 -14 8 -14 4 0 -4 -11 0 -25 9
-30 20 -33 7 -5 -19 12 -11 28 -15 42 -12 13 3 33 8 46 11 12 2 22 1 22 -5 0
-5 7 -9 16 -9 13 0 14 3 5 14 -8 10 -9 16 -1 21 6 3 8 10 5 15 -3 4 2 13 10
20 13 11 14 10 9 -6 -4 -10 -11 -24 -16 -30 -5 -7 -3 -14 7 -18 10 -4 14 -2 9
5 -4 7 0 9 14 5 11 -4 23 -2 26 3 6 10 34 8 59 -4 6 -3 2 2 -10 11 -13 9 -23
24 -23 33 0 11 3 12 8 4 4 -6 22 -11 39 -11 18 1 30 4 28 8 -2 4 16 6 40 6 32
-1 41 2 34 11 -7 7 -6 13 1 18 5 3 10 2 10 -3 0 -6 17 -12 38 -14 35 -3 38 -1
35 17 -4 18 -3 19 7 2 6 -9 8 -27 4 -40 -4 -12 -3 -18 2 -14 12 12 11 80 -1
89 -6 5 -5 8 3 8 8 0 25 9 39 20 28 22 53 26 53 9 0 -6 -6 -9 -14 -6 -17 7
-49 -19 -60 -48 -4 -11 -4 -16 0 -13 4 4 14 3 24 -2 12 -6 23 -5 36 5 15 10
22 11 33 2 9 -8 8 -2 -3 15 -17 27 -17 29 1 60 11 18 28 35 39 36 10 2 29 13
41 24 19 17 21 18 19 3 -1 -9 -8 -20 -15 -24 -9 -6 -6 -10 9 -14 12 -3 19 -10
16 -15 -8 -13 18 -22 34 -12 7 5 22 7 33 5 16 -4 17 -2 6 11 -8 10 -15 12 -23
4 -5 -5 -17 -10 -26 -9 -10 0 -11 2 -2 6 6 2 12 9 12 15 0 6 -7 8 -15 4 -17
-6 -21 9 -5 19 6 4 7 12 3 18 -7 13 38 -22 49 -38 4 -5 10 -6 15 -2 4 5 -3 17
-17 27 -14 10 -21 22 -17 26 4 4 7 2 7 -4 0 -6 6 -9 14 -6 8 3 16 -3 19 -16 3
-13 10 -19 16 -15 6 3 9 11 5 16 -3 5 -1 15 4 22 5 7 8 19 7 28 -3 18 10 19
34 4 12 -7 11 -10 -4 -15 -10 -4 -19 -16 -20 -28 -2 -27 35 -31 56 -5 13 15
12 15 -8 5 -28 -16 -33 -15 -33 3 0 15 9 18 40 16 10 0 11 1 3 5 -7 3 -13 9
-13 14 0 4 6 8 13 7 37 -1 46 4 40 21 -6 15 -5 16 12 2 11 -9 16 -10 11 -2 -4
7 -2 12 5 12 10 0 10 3 1 12 -17 17 -15 38 3 38 8 0 15 -4 15 -10 0 -5 5 -10
10 -10 22 0 8 29 -17 39 l-28 10 32 -2 c17 0 30 -4 28 -8 -3 -3 9 -6 25 -7 35
-1 53 -10 45 -23 -12 -18 2 -8 26 19 13 15 18 22 10 15 -14 -12 -36 -8 -58 10
-16 12 3 51 19 41 7 -5 9 0 5 15 -4 18 -3 20 9 10 20 -17 17 -26 -13 -44 -27
-15 -27 -15 -3 -9 14 4 27 11 28 15 2 5 8 9 14 9 5 0 16 6 24 14 12 13 12 16
-2 24 -15 9 -15 10 6 17 18 6 20 9 9 16 -11 7 -10 9 4 9 19 0 23 -26 5 -33
-10 -3 -10 -8 1 -21 12 -14 12 -17 1 -14 -8 2 -15 -6 -17 -17 -3 -18 -2 -18 5
-2 4 10 12 18 17 18 6 -1 10 5 10 12 0 6 8 11 18 9 22 -4 22 14 0 27 -10 6
-12 11 -5 11 6 0 12 6 12 14 0 8 5 18 11 22 17 10 30 -9 18 -26 -9 -12 -10
-11 -4 5 5 16 4 18 -7 7 -10 -10 -8 -17 12 -35 18 -16 20 -17 9 -3 -13 18 -12
19 4 13 13 -5 16 -3 11 5 -12 19 -14 58 -3 58 6 0 8 4 5 9 -5 8 29 25 47 22 4
-1 7 3 7 9 0 5 7 7 15 4 8 -4 15 -1 15 5 0 6 -4 11 -9 11 -5 0 -8 11 -8 25 0
13 4 22 9 19 5 -3 15 -1 22 5 8 7 18 11 22 10 20 -3 23 2 14 27 -7 17 -7 23 0
19 6 -3 14 5 20 19 12 32 15 33 15 2 0 -13 -4 -22 -9 -19 -5 4 -6 1 -2 -5 3
-5 0 -12 -6 -15 -7 -2 -10 -8 -5 -12 4 -5 14 0 22 11 9 12 14 14 15 6 0 -7 4
-10 10 -7 14 9 12 -4 -3 -19 -7 -7 -19 -11 -27 -9 -8 2 -6 -1 4 -8 15 -9 21
-9 24 -1 2 7 9 9 14 6 7 -5 8 -2 3 6 -6 10 -4 12 10 6 15 -5 16 -4 6 8 -7 8
-9 21 -5 27 5 9 1 10 -14 7 -24 -7 -39 6 -22 17 6 4 8 16 5 28 -4 17 -2 15 10
-5 19 -33 25 -36 20 -8 -3 14 2 20 15 20 10 0 22 -5 26 -12 5 -7 3 -8 -6 -3
-9 5 -11 4 -6 -3 4 -7 1 -12 -6 -12 -9 0 -9 -3 2 -10 11 -7 17 -4 22 11 5 13
12 18 20 13 9 -6 9 -3 -1 9 -12 15 -9 21 11 18 4 0 5 6 1 15 -4 12 -8 13 -13
3 -10 -15 -80 -24 -80 -10 0 6 7 7 17 4 11 -4 14 -3 9 5 -5 8 -1 10 10 5 12
-4 15 -3 10 5 -4 7 -2 20 4 29 10 16 11 16 6 1 -3 -12 -1 -15 9 -11 8 3 12 10
9 17 -3 6 2 2 11 -9 13 -17 17 -18 25 -5 5 8 6 18 4 22 -3 4 2 8 10 8 9 0 21
-9 28 -20 8 -12 23 -20 38 -19 l25 1 -25 8 c-14 4 -21 8 -16 9 5 1 4 7 -1 14
-24 30 -22 47 7 62 18 9 31 11 35 5 13 -20 23 -9 12 13 -8 18 -19 23 -43 22
-21 0 -30 3 -27 12 3 6 11 9 19 6 8 -3 14 0 14 6 0 6 9 11 20 11 14 0 18 -5
13 -17 -4 -11 -3 -14 5 -9 7 4 12 2 12 -4 0 -6 6 -18 14 -25 12 -12 15 -12 20
0 3 8 0 14 -5 12 -6 -1 -13 8 -15 21 -4 25 13 31 18 5 3 -14 5 -14 18 2 8 11
10 16 4 12 -7 -4 -17 0 -24 8 -6 7 -18 11 -26 8 -16 -6 -18 5 -5 25 7 12 11
12 22 0 11 -12 15 -12 31 4 18 18 26 54 9 43 -5 -3 -12 -1 -16 5 -3 5 1 10 10
10 10 0 13 5 9 13 -5 8 -2 7 9 -2 15 -12 20 -12 33 5 9 10 13 14 10 7 -4 -6
-2 -14 3 -17 13 -8 7 22 -7 36 -17 17 -15 31 3 24 8 -3 15 -1 15 5 0 6 4 7 10
4 6 -3 10 3 10 14 0 13 8 21 23 23 13 2 22 9 21 20 -2 22 22 30 36 12 10 -11
9 -14 -6 -15 -18 0 -18 -1 1 -9 11 -5 14 -9 7 -9 -7 -1 -10 -6 -7 -11 4 -6 10
-8 15 -5 5 3 11 1 15 -5 8 -13 25 -13 25 0 0 6 -6 10 -14 10 -8 0 -16 6 -19
13 -8 21 11 57 30 57 15 0 16 -2 3 -10 -13 -9 -13 -10 0 -11 8 -1 18 -1 21 -1
4 1 6 -6 5 -16 0 -9 5 -16 12 -15 18 4 15 -8 -10 -35 -13 -14 -16 -22 -8 -17
12 6 12 5 4 -4 -9 -10 -17 -9 -38 4 -15 10 -29 15 -33 11 -3 -3 0 -6 8 -7 8 0
5 -4 -6 -8 -16 -7 -12 -10 22 -15 l42 -8 -27 -53 c-15 -29 -30 -51 -34 -49 -4
3 -5 -1 -2 -9 3 -10 -4 -14 -26 -15 -32 -1 -41 14 -12 21 12 3 11 5 -6 6 -17
1 -23 -4 -20 -16 2 -10 -2 -23 -10 -28 -10 -8 -9 -11 8 -12 11 -1 18 2 15 8
-4 5 6 9 20 9 29 0 28 -3 -13 -57 -13 -18 -21 -33 -17 -33 5 0 -2 -8 -13 -19
-12 -10 -22 -26 -22 -35 0 -9 -11 -28 -25 -42 -14 -14 -23 -29 -20 -34 3 -4
-8 -22 -25 -39 -16 -18 -28 -34 -27 -35 6 -11 -173 -224 -266 -318 -481 -484
-1118 -749 -1802 -750 -420 -1 -749 73 -1120 251 -228 110 -395 221 -594 395
-111 98 -314 322 -305 337 3 5 1 8 -4 7 -15 -4 -74 81 -66 94 4 6 3 8 -3 5
-16 -10 -65 66 -57 89 4 14 3 16 -4 5 -8 -11 -12 -9 -23 10 -7 13 -12 27 -11
32 1 4 -2 7 -8 7 -5 0 -10 5 -10 11 0 5 4 8 9 4 5 -3 12 -1 16 4 3 6 -3 8 -15
6 -22 -4 -46 28 -34 47 4 7 3 8 -4 4 -11 -6 -72 105 -72 131 0 7 -4 13 -9 13
-10 0 -18 20 -26 61 -4 17 -2 20 7 11 14 -14 32 -16 23 -3 -3 5 -1 12 5 16 5
3 10 12 10 18 0 8 -3 8 -9 -1 -12 -20 -18 -19 -36 3 l-15 20 7 -20 c6 -19 6
-19 -10 -3 -20 20 -22 29 -4 26 6 -2 12 6 12 16 0 24 20 32 28 11 4 -8 2 -15
-3 -15 -5 0 -7 -7 -4 -15 9 -23 23 -8 18 19 -3 20 -1 23 16 19 11 -3 20 -10
20 -15 0 -5 5 -6 10 -3 8 5 7 12 -2 22 -12 15 -11 15 10 2 16 -10 21 -21 18
-39z m-280 -1180 c18 0 23 -4 18 -12 -5 -8 0 -7 11 2 13 10 19 11 22 4 2 -7
13 -10 23 -7 14 4 20 0 20 -11 0 -9 -6 -16 -12 -16 -7 -1 1 -7 17 -15 17 -7
24 -14 18 -14 -7 -1 -13 -7 -13 -13 0 -7 -12 -21 -25 -31 -20 -14 -24 -15 -19
-2 9 22 -3 18 -16 -5 -8 -15 -8 -20 1 -18 7 2 14 -4 16 -13 4 -18 -36 -21 -50
-4 -5 6 -6 1 -3 -10 4 -14 -1 -24 -14 -33 -11 -7 -20 -9 -20 -4 0 4 -8 8 -19
9 -14 1 -17 -3 -14 -18 3 -11 0 -19 -6 -19 -7 0 -9 6 -6 13 4 6 -2 2 -12 -9
-14 -16 -24 -19 -36 -12 -13 7 -15 5 -10 -8 5 -13 2 -15 -14 -10 -14 4 -27 0
-39 -11 -17 -17 -17 -17 -10 10 6 26 5 27 -14 17 -11 -6 -20 -13 -20 -16 0 -3
5 -2 10 1 6 3 10 2 10 -2 0 -5 -9 -14 -21 -21 -12 -8 -18 -9 -14 -3 3 6 -1 11
-9 11 -10 0 -13 -6 -9 -17 6 -16 5 -16 -10 -4 -12 9 -17 10 -17 2 0 -7 -5 -9
-10 -6 -6 4 -8 11 -5 16 4 5 -1 9 -9 9 -10 0 -13 -6 -9 -17 4 -11 3 -14 -5 -9
-7 4 -12 15 -12 24 0 15 -2 15 -10 2 -6 -10 -6 -16 0 -18 6 -2 10 -7 10 -12 0
-11 -98 -7 -124 5 -14 6 -17 5 -12 -3 4 -7 2 -12 -4 -12 -7 0 -10 6 -7 13 2 6
13 12 24 12 12 0 25 4 30 9 5 5 1 7 -9 3 -10 -3 -20 -2 -24 4 -4 6 -10 5 -17
-4 -15 -17 -47 -30 -47 -18 0 5 6 12 13 14 9 4 8 8 -3 16 -18 13 -31 14 -28 2
2 -5 -1 -9 -7 -9 -5 0 -9 4 -7 10 1 6 -7 7 -20 2 -23 -7 -23 -7 2 19 18 19 28
23 38 15 9 -8 16 -6 27 8 14 19 14 19 16 -1 1 -11 0 -27 -1 -35 -1 -11 1 -12
10 -4 12 12 -1 57 -21 70 -7 4 -10 3 -5 -4 3 -6 2 -13 -3 -16 -5 -4 -12 -2
-15 3 -14 22 173 134 284 171 64 22 183 41 208 34 8 -2 25 -4 38 -4z m5222
-31 c40 -10 101 -33 135 -50 81 -41 189 -118 181 -130 -3 -5 0 -8 7 -7 6 2 14
-3 17 -11 2 -8 0 -11 -5 -8 -5 3 -10 0 -10 -8 0 -8 4 -12 8 -9 4 2 7 -5 6 -16
-1 -19 -17 -32 -47 -36 -8 -1 -23 -5 -32 -9 -11 -4 -18 -3 -18 5 0 6 5 8 12 4
7 -5 8 -3 3 6 -6 10 -10 10 -19 -2 -15 -20 -74 -18 -86 2 -8 13 -11 13 -22 1
-10 -10 -10 -12 0 -7 6 4 12 2 12 -3 0 -13 -3 -13 -24 -5 -9 3 -13 10 -10 15
11 19 12 49 2 55 -7 5 -9 0 -6 -14 3 -12 -1 -29 -9 -39 -13 -17 -14 -16 -8 10
5 27 -8 37 -21 16 -4 -8 -9 -7 -15 2 -7 12 -9 12 -9 0 0 -8 8 -20 18 -27 9 -7
12 -14 5 -14 -6 0 -14 4 -17 9 -3 5 -14 7 -25 4 -10 -2 -25 3 -34 11 -9 9 -20
16 -24 15 -4 -1 -30 4 -57 11 -42 11 -47 15 -32 25 22 17 20 21 -8 21 -17 0
-22 -4 -18 -15 5 -14 3 -14 -11 -2 -9 7 -14 18 -10 25 4 6 -2 4 -12 -4 -17
-14 -18 -13 -12 3 5 12 1 17 -11 17 -29 0 -43 19 -29 42 15 24 -3 37 -41 30
-17 -3 -21 -7 -12 -10 8 -3 18 -10 22 -16 5 -7 8 -3 8 9 0 15 2 17 13 6 10
-10 8 -15 -8 -27 -18 -13 -20 -13 -23 1 -2 8 -7 13 -11 11 -4 -3 -12 4 -19 14
-10 16 -8 20 8 25 21 7 28 25 10 25 -5 0 -10 -4 -10 -10 0 -5 -5 -10 -11 -10
-5 0 -7 5 -4 11 4 6 -1 17 -11 24 -18 14 -18 14 1 15 17 0 17 2 5 10 -8 5 -12
10 -8 10 3 0 14 3 24 7 14 5 16 3 10 -13 -6 -16 -4 -15 15 4 17 19 23 21 30
10 6 -8 9 -9 9 -1 0 25 130 21 238 -8z"/>
</g>
</svg>
