<?xml version="1.0" standalone="no"?>
<!DOCTYPE svg PUBLIC "-//W3C//DTD SVG 20010904//EN"
 "http://www.w3.org/TR/2001/REC-SVG-20010904/DTD/svg10.dtd">
<svg version="1.0" xmlns="http://www.w3.org/2000/svg"
 width="1000.000000pt" height="1000.000000pt" viewBox="0 0 1000.000000 1000.000000"
 preserveAspectRatio="xMidYMid meet">
<metadata>
Created by potrace 1.16, written by Peter Selinger 2001-2019
</metadata>
<g transform="translate(0.000000,1000.000000) scale(0.100000,-0.100000)"
fill="#000000" stroke="none">
<path d="M4939 9748 c-247 -32 -441 -236 -524 -551 -121 -457 73 -970 412
-1089 324 -114 638 106 748 524 105 397 -25 844 -299 1030 -101 69 -225 101
-337 86z"/>
<path d="M7900 8519 c-208 -19 -417 -124 -591 -298 -242 -242 -349 -551 -279
-809 105 -387 568 -482 986 -202 101 68 236 203 304 304 236 352 209 753 -61
927 -92 59 -234 90 -359 78z"/>
<path d="M1955 8509 c-284 -34 -455 -231 -455 -524 0 -222 108 -455 299 -646
242 -242 551 -349 809 -279 230 62 362 247 362 505 0 222 -108 455 -299 646
-143 143 -287 228 -464 274 -108 27 -170 33 -252 24z"/>
<path d="M4838 7689 c-744 -40 -1466 -411 -1933 -992 -169 -210 -340 -509
-428 -747 -72 -196 -134 -456 -157 -665 -14 -129 -14 -431 0 -560 23 -209 85
-469 157 -665 88 -238 256 -532 429 -750 87 -109 285 -307 394 -394 218 -173
512 -341 750 -429 122 -45 326 -101 460 -126 310 -58 660 -58 970 0 250 47
473 121 706 234 257 126 500 300 709 510 142 142 224 241 346 424 150 224 269
486 343 756 71 261 97 451 97 720 0 269 -26 459 -97 720 -74 270 -193 532
-343 756 -122 183 -204 282 -346 424 -486 487 -1122 761 -1825 788 -52 1 -157
0 -232 -4z"/>
<path d="M989 5619 c-163 -13 -358 -79 -476 -161 -270 -185 -343 -488 -175
-734 186 -274 633 -404 1029 -299 419 110 639 423 525 748 -101 286 -493 480
-903 446z"/>
<path d="M8809 5609 c-163 -13 -358 -79 -476 -161 -270 -185 -343 -488 -175
-734 186 -274 633 -404 1029 -299 419 110 639 423 525 748 -101 286 -493 480
-903 446z"/>
<path d="M2250 2955 c-175 -48 -324 -137 -461 -274 -322 -323 -396 -763 -170
-1014 157 -175 453 -206 734 -79 158 72 344 232 447 386 242 361 206 772 -81
939 -118 69 -310 86 -469 42z"/>
<path d="M7369 2946 c-446 -131 -471 -725 -50 -1147 191 -191 424 -299 646
-299 257 0 443 133 505 360 69 260 -37 568 -279 811 -245 245 -564 352 -822
275z"/>
<path d="M4939 1928 c-247 -32 -441 -236 -524 -551 -121 -457 73 -970 412
-1089 324 -114 638 106 748 524 105 397 -25 844 -299 1030 -101 69 -225 101
-337 86z"/>
</g>
</svg>
